<?xml version="1.0" encoding="UTF-8"?>
<svg id="Layer_2" data-name="Layer 2" xmlns="http://www.w3.org/2000/svg" viewBox="0 0 2085.13 2912.33">
  <defs>
    <style>
      .cls-1 {
        stroke: #fdf0df;
        stroke-miterlimit: 10;
        stroke-width: 81px;
      }

      .cls-1, .cls-2 {
        fill: #0453a5;
      }

      .cls-3 {
        fill: #fbefdf;
      }

      .cls-4 {
        fill: #fff;
      }

      .cls-5 {
        fill: #9d352f;
      }

      .cls-6 {
        fill: #e15914;
      }

      .cls-7 {
        fill: #ca2b32;
      }
    </style>
  </defs>
  <g id="Layer_1-2" data-name="Layer 1">
    <g>
      <polygon class="cls-4" points="1060.04 2912.33 1056.04 2912.33 1058.45 2910.96 1060.04 2912.33"/>
      <path class="cls-1" d="M1598.52,492.69l392.85,174.07c26.34,15.33,48.06,46.38,50.73,77.24,4.07,46.95-.71,103.78-.15,152.1,3.5,302.29.37,605.16,1.99,907.7.65,120.72,7.81,188.35-43.55,302.15-97.41,215.85-292.9,343.49-483.31,468.53-134.2,88.12-275.01,179.11-415.7,256.22-11.32,6.21-44.4,26.42-54.56,27.52-13.2,1.42-28.38-9.36-40.13-15.52-99.68-52.27-201.07-117.24-296.49-177.45-103.58-65.37-211.52-133.72-310.8-205.13-175.37-126.15-354.31-317.65-357.27-546.35-5.06-391.02,3.28-782.32,2.41-1173.18,5.16-32.95,25.85-59.23,54.12-75.86l375.28-166.67c4.15-3.92,12.19-43.38,15.1-52.88C577.62,156.22,812.98,10.81,1114.79,45.56c257.62,29.66,422.77,201.24,483.73,447.13Z"/>
      <path class="cls-2" d="M1196.03,315.21c-28.03-93.74-94.97-175.12-183.43-217.52-93.13,4.78-185.97,30.26-264.56,80.59,54.39,1.01,108.91,3.05,162.4,13.57,74.82,14.72,157.42,47.73,193.9,119.05,30.69-.53,61.1,2.41,91.68,4.31Z"/>
      <path class="cls-2" d="M1304.03,333.22c-2.71-37.63-1.73-75.52,9.01-111.96,2.01-6.8,15.79-37.27,14.11-39.98-70.83-46.49-153.23-71.64-237.1-81.99-1,3.85,1.48,3.86,3.33,5.65,7.24,7,18.83,14.13,26.68,21.31,57.35,52.41,96.01,120.35,118.46,194.49l65.51,12.48Z"/>
      <path class="cls-2" d="M1522.03,417.16c-32.05-83.95-88.17-159.05-160.96-211.92-22.89,41.53-22.37,93.27-15.23,139.15,29.33,10.73,59.2,20.02,88.12,31.87,30,12.28,58.67,27.39,88.06,40.9Z"/>
      <path class="cls-2" d="M1060.03,313.21c2.61-2.54-9.46-16.37-11.94-19.03-77.76-83.39-247.73-80.48-352.64-78.52-89.95,71.61-155.44,178.13-169.38,293.5,156.09-110,341.01-187.03,533.97-195.94Z"/>
      <path class="cls-2" d="M1079.84,347.41c-168.42,4.57-333.98,64.81-475.64,152.91-19.59,12.18-40.34,25.43-58.8,39.19-6.15,4.59-22.49,15.11-24.47,21.51-.57,40.48,3.74,80.95,14.05,120.12l5.94,2.06c96.8-1.23,194.08,1.96,290.59-1.62,63.01-47.7,128.49-97.51,181.54-156.4,42.38-47.04,88.78-110.99,66.78-177.76Z"/>
      <path class="cls-2" d="M892.04,683.09h312c18.15-108.65,29.1-221.81,2.79-330.1-29.33-4.54-59.12-6.34-88.79-5.77,19.8,58.61-12.88,119.74-47.17,165.75-49.23,66.06-115.92,117.92-178.83,170.11Z"/>
      <path class="cls-2" d="M1448.04,683.09c-41.8-105.61-115.3-195.73-136.97-309.92l-62-13.99c-2.39.24,6.16,42.82,6.7,47.29,8.56,70.91,5.48,148.61-4,219.35-2.57,19.15-6.89,38.17-9.71,57.27h206Z"/>
      <path class="cls-2" d="M1537.49,467.71c-58.06-33.6-119.32-62.19-183.44-82.51,19.1,91.38,77.12,165.61,114.34,248.55,7.26,16.18,12.26,34.07,20.91,49.07,2.55.87,40.92.88,43.47,0,3.64-1.24,5.2-13.41,6.28-17.71,12.05-48.08,13.02-103.69,6.69-152.69-1.94-15.03-5.25-29.92-8.26-44.73Z"/>
      <path class="cls-2" d="M1646.54,654.6l264.9,114.06c2.73,1.62,9.33,6.89,10.7,9.3,4.28,7.51,1.43,44.25,1.81,56.17,11,346.3-3.98,694.91,2.17,1041.64-34.72,324.3-312.4,496.96-560.25,657.52-81.54,52.83-167.96,108.95-253.79,154.16-10.87,5.73-59.31,31.71-67.35,32.41s-57.55-25.62-68.04-31.11c-91.34-47.83-183.15-107.92-269.7-164.25-238.48-155.19-519.04-325.59-545.04-640.75l.19-1099.59c1.14-7.21,7.7-12.83,13.78-16.22l246.93-111.04c7-5.19,12.31-54.54,15.16-65.79l-290.06,130.87c-22.25,12.63-38.66,35.82-40,61.98v1111.79c29.96,284.6,247.45,456.99,466.64,605.15,126.14,85.26,279.64,192,416.73,255.19,30.04,13.85,43.99,23.73,77.24,11.8,92.52-33.19,223.91-123.76,309.31-178.63,263.76-169.46,553.1-351.16,600.25-691.51l-.98-1122.8c-4.45-22.52-19.26-41.76-39.02-52.96l-301.12-130.84c-3.28-.39-3.26-.31-2.88,2.85,2.35,19.36,9.42,40.99,12.43,60.59Z"/>
      <path class="cls-2" d="M1635.36,756.39c13.85-14.49,4.77-41.33-16.22-41.41l-1153.16,1.04c-21.65,7.55-21.65,38.55,0,46.1l1160.14.02c2.68-1.89,7.12-3.53,9.25-5.75Z"/>
      <path class="cls-2" d="M535.04,787.06c-6.76-1.92-21.16,1.4-29,0,67.13,59.53,99.17,148.69,112.1,235.81l23.9.1c-1.74-19.13-7.16-37.65-10.52-56.48-.33-1.82-3.66-4.76,1.54-3.52,13.55,3.23,38.46,27.74,46.64,39.36,3.28,4.66,9.42,18.99,11.31,20.68,4.99,4.46,20.06.85,27.02,1.96-13.43-40.69-50.56-68.94-85.67-91.13l15.68-146.79c-5.67,1.09-23.69-2.91-25.73,3.29l-9.28,114.7c-13.36-32.42-28.91-65.2-51.98-92.01-2.91-3.38-24.26-25.46-26.02-25.97Z"/>
      <path class="cls-2" d="M848.04,787.06c.3,41.3-9.16,85.56-29,121.92-19.41-25.74-33.5-54.89-45.04-84.9-2.46-6.41-9.01-32.52-10.91-35.07-3.1-4.17-19.34-1-25.04-1.94,9.26,36.86,22.98,74.17,41.65,107.29,3.8,6.75,26.17,37.34,26.41,39.71,1.49,14.71-52.45,75.26-64.06,88.9h29c4.44,0,52.62-58.04,55.99-67.97,18.37,17.54,42.29,26.85,63.01,41,.99,4.16-26.34,20.75-26,28.97h29c1.29,0,15.24-15.57,20.07-16.06,7.25-.74,26.2,14.06,29.93,14.06h43l-46.69-28.3c-1.69-1.25-3.92-1.83-3.3-4.66.5-2.29,31.26-25.73,36.02-29.99,16.14-14.45,34.59-31.1,47.91-48.07,7.35-9.36,12.63-19.76,20.04-28.93,10.82,26.43,31.06,49.96,52,69,8.68,7.89,42.69,31.83,45.98,40.02.94,2.33-.18,3.3-2.48,3.46l-39.47,27.45c10.51,1.55,26.66,3.94,36.94,1.98,6.1-1.16,19.45-16.48,23.76-15.74,2.98.51,14.75,15.78,16.28,15.78h29c1.11-8.38-26.84-27.79-23.99-31.95l69.03-39.81c14.56,22.61,29.9,45.74,52.04,61.68,3.33,2.4,8.35,7.35,11.96,8.04,7.27,1.39,17.28-.87,24.96.02-29.4-22.3-51.09-53.04-65.41-86.98,31.87-43.56,46.7-97.57,61.41-148.91-6.22,1.04-23.43-2.37-27.02,1.96-13.59,37.12-22.34,81.72-42,116.04-1.13,1.98.03,5.1-3.95,3.96-6.04-1.73-28.29-107.8-29.02-121.97h-28c4.85,48.22,13.42,96.76,33.7,141l-74.73,48.96c-39.37-35.32-83.2-65.74-107.3-114.65-2.24-4.54-5.57-9.12-5.8-14.36-.39-8.98,10.44-56.67,6.14-60.96h-26.02c.11,29.04-2.83,67.71-17.61,93.36-14.25,24.73-65.88,72.07-89.44,90.52-3.75,2.94-8.12,7.33-12.94,5.25-9.36-6.01-66.84-36.42-67.45-44.15,22.45-44.75,35.43-94.6,35.44-144.98h-28Z"/>
      <path class="cls-2" d="M1338.04,1022.98h33c2.29,0,27.02-26.31,35.98-28.02,3.2-.61,3.32-.01,2.93,2.9-1.13,8.45-3.11,16.4-1.92,25.13h26.02c-.92-46.98,29.02-92.9,53.16-131.8,19.71-31.77,43.13-61.31,63.28-92.69,2.25-3.5,5.68-7.07,5.55-11.45h-28c-29.42,43.67-62.57,85.08-87,131.98l7.01-131.99h-26.02s-10.37,178.56-10.37,178.56c-1.46,4.84-18.83,12-24.23,15.76-17.68,12.3-33.69,26.93-49.38,41.6Z"/>
      <path class="cls-2" d="M600.04,1208.91v-66.98c0-51.03-48.42-83.62-94.92-87.05-48.32-3.56-127.83-3.55-176.15,0-59.27,4.36-91.41,43.2-95.02,100.95,6.42,107.22-8.25,223.83.13,329.95,4.3,54.39,36.01,84.42,91.06,83.08,87.6-22.02,274.91,8.5,274.91-127.03v-67.98c0-3.73-11.97-3.24-15.08-3.08-25.22,1.26-50.72,4.33-75.94,6.06-7.61.52-15.38-.31-22.98.02v66.98c0,5.6-9.25,14.54-15.47,14.52-33.79.95-70.17,9.64-103.48,10.58-13.1.37-17.95-4.07-19.14-17.01,5.92-90.61-7.56-190.57.03-280.07.6-7.05,1.56-16.05,8.22-19.77,10.94-6.1,57.28-2.81,72.93-3.07,9.66-.16,56.92-8.61,56.92,8.91v51.98l114-1Z"/>
      <path class="cls-2" d="M1143.04,1056.97h-271v461.84c14.91,1.91,30.74-1.73,44.92-2.08,78.56-1.93,164.94,5.86,242.06.06,38.37-2.89,74.81-20.77,86.46-59.52,6.83-22.73,7.66-101.58,1.58-124.4-8.27-31-35.68-46.26-65.03-52.97,31.87-11.62,53.29-30.29,56.09-65.91,6.23-79.11-1.31-149.07-95.07-157.02Z"/>
      <polygon class="cls-2" points="1864.04 1056.97 1526.04 1056.97 1526.04 1535.8 1642.04 1548.8 1642.04 1364.86 1844.04 1380.85 1844.04 1282.89 1640.04 1270.89 1640.04 1150.93 1864.04 1156.93 1864.04 1056.97"/>
      <polygon class="cls-2" points="784.04 1410.84 668.04 1416.84 668.04 1528.8 784.04 1522.81 784.04 1410.84"/>
      <polygon class="cls-2" points="1438.04 1416.84 1322.04 1412.84 1322.04 1522.81 1438.04 1530.8 1438.04 1416.84"/>
      <path class="cls-2" d="M954.04,1678.75v-42.99c0-4.83-4.29-20.38-6.45-25.54-5.8-13.9-16.49-23.25-31.1-26.89-17.41-4.34-73.03-.64-93.2,1.7-33.68,3.91-49.57,23.89-53.21,56.77,3.01,61.53-4.11,126.94-.13,188,2.31,35.37,15.32,58,53.02,60.96,20.94,1.64,83.95,2.45,101.08-5.07s30-30.42,30-47.99v-54.98h-58v44.98c0,1.5-4.86,4.53-7.05,4.95-5.5,1.05-53.76.62-56.96-.94-1.67-.81-3.06-2.62-3.59-4.41l-.49-175.63c-1.45-4.98,7.62-10.9,11.09-10.9h54c.21,0,3,2.79,3,3v36.99l58-2Z"/>
      <path class="cls-2" d="M1050.04,1580.79h-58v307.89h58v-129.96l21.58.44c7.9,17.28,52.42,62.5,52.42,78.53v50.98h56v-74.97c0-2.45-5.8-11.56-7.55-14.45-6.59-10.89-49.38-62.89-50.12-67.89-1.21-8.1,57.67-57.65,57.67-75.61v-72.98l-54-2v56.98c0,4.91-6.91,13.8-10.06,17.93-4.57,6-34.83,40.86-38.83,43.16-7.27,4.18-18.76.9-27.11,1.89v-119.96Z"/>
      <path class="cls-2" d="M1386.04,1594.78l-166.01-10.01,1.01,303.91h167v-55.98l-112-2v-66.98c0-1.44,2.42-2.17,4.08-2.18,29.55-.08,59.48,2.15,89.02,3.27,2.05.44,6.89-1.44,6.89-3.1v-49.98c0-1.13-3.36-3.07-5-3l-93-4v-59.98l108,6v-55.98Z"/>
      <polygon class="cls-2" points="726.04 1594.78 668.04 1598.78 668.04 1888.68 726.04 1888.68 726.04 1594.78"/>
      <path class="cls-2" d="M1426.04,1598.78v289.9h54v-163.94l38.21,80.76c5.15,6.6,32.23,2.02,41.47,2.88l38.32-75.65v155.95h54v-261.91l-55.88-7.96-53.64,113.35-4.45,2.57-54.32-129.66-57.71-6.29Z"/>
      <path class="cls-2" d="M506.04,1792.71c38.5-4.24,102.62,10.48,120.57-34.42,7.92-19.8,8.25-98.51,2.06-119.16-6.56-21.87-27.4-32.84-49.62-30.33l-131.01,17.96v261.91h58v-95.97Z"/>
      <path class="cls-2" d="M1352.02,2072.62l-9-47.96c-139.02-64.93-304.57-83.38-454.62-48.64-40.62,9.41-80.26,23.48-117.92,41.07-2.89,18.97-10.9,38.44-9.47,57.5l64.6-18.38c6.3-11.75-4.46-35.69,14.32-38.74,22.83-3.71,14.24,31.3,17.13,31.18l42.96-8.04c-.94-13.56-.3-41.47,20.1-35.1,15.78,4.93,5.64,26.87,7.91,29.12l40.02-3.99c-8.63-41.86,32.8-47.85,27.98-4l48.02-2c-6.66-38.99,33.05-36.62,27.98,0,6.05-1.19,42.46,1.55,44.02,0,1.28-1.27-4.51-29.25,14.85-27.98,19.3,1.26,10.64,27.58,14.31,30.2,1.75,1.25,41.32,5.3,42.85,3.78,1.22-1.21-4.62-27.23,14.84-25.98,18.97,1.22,11.12,29.68,13.25,31.87,1.38,1.43,34.09,4.34,38.94,8.06,2.66-10.59-3.27-21.22,9.92-26.14,24.18-9.01,16.87,27.9,23.01,33.2,7.42,6.4,52.71,13.02,64.01,20.96Z"/>
      <path class="cls-2" d="M712.03,2296.55c-2.88-87.38,3.57-174.26,19.98-259.92-14.06,10.06-61.68,32.79-68.41,46.55s-12.22,47.08-14.94,63.04c-7.69,45.08-10.09,90.49-8.54,136.24l71.91,14.09Z"/>
      <path class="cls-2" d="M1469.84,2284.35c1.62-49.64-1.18-99.36-10.44-148.12-1.71-9.01-9.13-45.68-13.46-50.52-1.8-2.01-11.89-8.31-15.28-10.71-4.84-3.42-50.46-32.5-52.61-30.35,18.63,83.18,21.68,168.74,20,253.89l71.79-14.18Z"/>
      <path class="cls-2" d="M1044.04,2052.63c-7.94,2.44-42.53.37-46.13,2.87-6.46,4.49,7.92,37.68-13.32,40.81-20.13,2.97-15.05-24.91-16.54-34.75-.47-3.09,1.22-3.06-3.03-3.02-11.44.13-25.32,4.49-37.11,4.94-4.96,3.33,4.36,37.92-15.31,40.82-19.99,2.95-14.98-24.65-15.58-35.71-7.96,4.24-35.76,4.86-41.02,8.98-7.62,5.96,3.31,35.29-15.43,38.73-17.34,3.19-17.94-19.93-16.54-31.68l-69.62,20.36c-9.7,64.59-12.27,130.33-9.44,195.72.59,1.93.5,2.88,2.59,3.81,8.1,3.62,46.02,7.88,57.83,9.69,135.37,20.74,273.13,24.45,409.42,10.08,49.95-5.26,99.7-13.44,149.38-20.62,5.56-3.89,4.32-72.72,3.95-84.18-.67-20.9-2.25-43.01-4.09-63.88-.56-6.35-5.22-49.58-7.23-51.21l-64.75-21.77c-1.24,10.98,4.52,25.61-7.31,31.71-21.64,11.17-22.42-26.25-22.95-39.47-1.22-1.83-40.67-10.17-42.84-9.78-8.83,1.57,6.96,27.71-10.21,37.26-22.4,12.46-22.3-28.99-20.93-41.51-13.74-2.56-27.77-4.75-41.79-4.22.71,12.05,2.77,42.54-16.54,39.69-20.85-3.07-9.38-43.68-16.45-43.68h-41v34.99c0,9.19-28,11.52-28-2v-32.99Z"/>
      <path class="cls-2" d="M608.03,2272.55c-2.49-52.51,3.67-104.32,11.99-155.95-24.54,22.96-49.04,46.62-69.92,73.03-22.74,28.76-42.56,48.66-19.68,85.54,10.89,17.56,32.29,41.84,46.6,57.38,4.51,4.9,33.28,34.73,36.06,35.94,4.53,1.97,2.24-2.49,2.1-4.09-2.06-23.27-5.8-46.64-8.08-69.92-10.04-4.38-75.2-32.87-77.13-38.98-.28-.87-.57-4.99,1.06-4.94l77.02,21.97Z"/>
      <path class="cls-2" d="M1496.05,2366.52c29.13-22.25,57.11-50.28,79.93-79.02,32.86-41.39,22.92-56.88-8-93.87-22.04-26.37-48.76-52.07-75.93-73.03,8.83,50.86,14.07,102.19,11.98,153.95l82.02-22.98c-2.31,5.48-10.94,9.16-15.98,12.02-20.54,11.65-43.68,20.85-65.72,29.28l-8.31,73.64Z"/>
      <path class="cls-2" d="M1384.05,2444.48c1.53,1.75,28.29-14.96,31.82-17.15,7.56-4.7,38.77-24.45,41.96-30.03,3.84-6.71,6.67-32.81,7.93-42.06.87-6.43,5.75-48.63,4.26-50.7l-71.9,20.07-14.07,119.87Z"/>
      <path class="cls-2" d="M730.01,2452.49l-16.85-126.08-71.11-19.86c-1.76,1.84,3.38,44.08,4.27,50.69,1.37,10.11,4.4,37.65,8.85,45.13,2.61,4.39,18.2,14.81,23.42,18.57,16.19,11.67,33.8,22.18,51.42,31.55Z"/>
      <path class="cls-2" d="M1364.03,2334.52c-178.91,36.15-358.15,40.89-538.67,13.67-24.9-3.75-49.63-8.94-74.35-13.68-4.96-1.08-3.22,11.7-3.06,15.1,1.29,26.99,7.45,62.43,12.71,89.25,1.56,7.96,4.35,30.6,9.38,34.6,156.15,73.16,347.01,75.24,509.03,19.04,10.44-3.62,63.03-23.25,66.6-29.39,4.03-6.93,8.42-39.74,10.03-49.95,4.11-25.99,7.16-52.36,8.33-78.65Z"/>
      <path class="cls-2" d="M1598.52,492.69l392.85,174.07c26.34,15.33,48.06,46.38,50.73,77.24,4.07,46.95-.71,103.78-.15,152.1,3.5,302.29.37,605.16,1.99,907.7.65,120.72,7.81,188.35-43.55,302.15-97.41,215.85-292.9,343.49-483.31,468.53-134.2,88.12-275.01,179.11-415.7,256.22-11.32,6.21-44.4,26.42-54.56,27.52-13.2,1.42-28.38-9.36-40.13-15.52-99.68-52.27-201.07-117.24-296.49-177.45-103.58-65.37-211.52-133.72-310.8-205.13-175.37-126.15-354.31-317.65-357.27-546.35-5.06-391.02,3.28-782.32,2.41-1173.18,5.16-32.95,25.85-59.23,54.12-75.86l375.28-166.67c4.15-3.92,12.19-43.38,15.1-52.88C577.62,156.22,812.98,10.81,1114.79,45.56c257.62,29.66,422.77,201.24,483.73,447.13ZM1196.03,315.21c-28.03-93.74-94.97-175.12-183.43-217.52-93.13,4.78-185.97,30.26-264.56,80.59,54.39,1.01,108.91,3.05,162.4,13.57,74.82,14.72,157.42,47.73,193.9,119.05,30.69-.53,61.1,2.41,91.68,4.31ZM1304.03,333.22c-2.71-37.63-1.73-75.52,9.01-111.96,2.01-6.8,15.79-37.27,14.11-39.98-70.83-46.49-153.23-71.64-237.1-81.99-1,3.85,1.48,3.86,3.33,5.65,7.24,7,18.83,14.13,26.68,21.31,57.35,52.41,96.01,120.35,118.46,194.49l65.51,12.48ZM1522.03,417.16c-32.05-83.95-88.17-159.05-160.96-211.92-22.89,41.53-22.37,93.27-15.23,139.15,29.33,10.73,59.2,20.02,88.12,31.87,30,12.28,58.67,27.39,88.06,40.9ZM1060.03,313.21c2.61-2.54-9.46-16.37-11.94-19.03-77.76-83.39-247.73-80.48-352.64-78.52-89.95,71.61-155.44,178.13-169.38,293.5,156.09-110,341.01-187.03,533.97-195.94ZM1079.84,347.41c-168.42,4.57-333.98,64.81-475.64,152.91-19.59,12.18-40.34,25.43-58.8,39.19-6.15,4.59-22.49,15.11-24.47,21.51-.57,40.48,3.74,80.95,14.05,120.12l5.94,2.06c96.8-1.23,194.08,1.96,290.59-1.62,63.01-47.7,128.49-97.51,181.54-156.4,42.38-47.04,88.78-110.99,66.78-177.76ZM892.04,683.09h312c18.15-108.65,29.1-221.81,2.79-330.1-29.33-4.54-59.12-6.34-88.79-5.77,19.8,58.61-12.88,119.74-47.17,165.75-49.23,66.06-115.92,117.92-178.83,170.11ZM1448.04,683.09c-41.8-105.61-115.3-195.73-136.97-309.92l-62-13.99c-2.39.24,6.16,42.82,6.7,47.29,8.56,70.91,5.48,148.61-4,219.35-2.57,19.15-6.89,38.17-9.71,57.27h206ZM1537.49,467.71c-58.06-33.6-119.32-62.19-183.44-82.51,19.1,91.38,77.12,165.61,114.34,248.55,7.26,16.18,12.26,34.07,20.91,49.07,2.55.87,40.92.88,43.47,0,3.64-1.24,5.2-13.41,6.28-17.71,12.05-48.08,13.02-103.69,6.69-152.69-1.94-15.03-5.25-29.92-8.26-44.73ZM1646.54,654.6l264.9,114.06c2.73,1.62,9.33,6.89,10.7,9.3,4.28,7.51,1.43,44.25,1.81,56.17,11,346.3-3.98,694.91,2.17,1041.64-34.72,324.3-312.4,496.96-560.25,657.52-81.54,52.83-167.96,108.95-253.79,154.16-10.87,5.73-59.31,31.71-67.35,32.41s-57.55-25.62-68.04-31.11c-91.34-47.83-183.15-107.92-269.7-164.25-238.48-155.19-519.04-325.59-545.04-640.75l.19-1099.59c1.14-7.21,7.7-12.83,13.78-16.22l246.93-111.04c7-5.19,12.31-54.54,15.16-65.79l-290.06,130.87c-22.25,12.63-38.66,35.82-40,61.98v1111.79c29.96,284.6,247.45,456.99,466.64,605.15,126.14,85.26,279.64,192,416.73,255.19,30.04,13.85,43.99,23.73,77.24,11.8,92.52-33.19,223.91-123.76,309.31-178.63,263.76-169.46,553.1-351.16,600.25-691.51l-.98-1122.8c-4.45-22.52-19.26-41.76-39.02-52.96l-301.12-130.84c-3.28-.39-3.26-.31-2.88,2.85,2.35,19.36,9.42,40.99,12.43,60.59ZM1635.36,756.39c13.85-14.49,4.77-41.33-16.22-41.41l-1153.16,1.04c-21.65,7.55-21.65,38.55,0,46.1l1160.14.02c2.68-1.89,7.12-3.53,9.25-5.75ZM535.04,787.06c-6.76-1.92-21.16,1.4-29,0,67.13,59.53,99.17,148.69,112.1,235.81l23.9.1c-1.74-19.13-7.16-37.65-10.52-56.48-.33-1.82-3.66-4.76,1.54-3.52,13.55,3.23,38.46,27.74,46.64,39.36,3.28,4.66,9.42,18.99,11.31,20.68,4.99,4.46,20.06.85,27.02,1.96-13.43-40.69-50.56-68.94-85.67-91.13l15.68-146.79c-5.67,1.09-23.69-2.91-25.73,3.29l-9.28,114.7c-13.36-32.42-28.91-65.2-51.98-92.01-2.91-3.38-24.26-25.46-26.02-25.97ZM848.04,787.06c.3,41.3-9.16,85.56-29,121.92-19.41-25.74-33.5-54.89-45.04-84.9-2.46-6.41-9.01-32.52-10.91-35.07-3.1-4.17-19.34-1-25.04-1.94,9.26,36.86,22.98,74.17,41.65,107.29,3.8,6.75,26.17,37.34,26.41,39.71,1.49,14.71-52.45,75.26-64.06,88.9h29c4.44,0,52.62-58.04,55.99-67.97,18.37,17.54,42.29,26.85,63.01,41,.99,4.16-26.34,20.75-26,28.97h29c1.29,0,15.24-15.57,20.07-16.06,7.25-.74,26.2,14.06,29.93,14.06h43l-46.69-28.3c-1.69-1.25-3.92-1.83-3.3-4.66.5-2.29,31.26-25.73,36.02-29.99,16.14-14.45,34.59-31.1,47.91-48.07,7.35-9.36,12.63-19.76,20.04-28.93,10.82,26.43,31.06,49.96,52,69,8.68,7.89,42.69,31.83,45.98,40.02.94,2.33-.18,3.3-2.48,3.46l-39.47,27.45c10.51,1.55,26.66,3.94,36.94,1.98,6.1-1.16,19.45-16.48,23.76-15.74,2.98.51,14.75,15.78,16.28,15.78h29c1.11-8.38-26.84-27.79-23.99-31.95l69.03-39.81c14.56,22.61,29.9,45.74,52.04,61.68,3.33,2.4,8.35,7.35,11.96,8.04,7.27,1.39,17.28-.87,24.96.02-29.4-22.3-51.09-53.04-65.41-86.98,31.87-43.56,46.7-97.57,61.41-148.91-6.22,1.04-23.43-2.37-27.02,1.96-13.59,37.12-22.34,81.72-42,116.04-1.13,1.98.03,5.1-3.95,3.96-6.04-1.73-28.29-107.8-29.02-121.97h-28c4.85,48.22,13.42,96.76,33.7,141l-74.73,48.96c-39.37-35.32-83.2-65.74-107.3-114.65-2.24-4.54-5.57-9.12-5.8-14.36-.39-8.98,10.44-56.67,6.14-60.96h-26.02c.11,29.04-2.83,67.71-17.61,93.36-14.25,24.73-65.88,72.07-89.44,90.52-3.75,2.94-8.12,7.33-12.94,5.25-9.36-6.01-66.84-36.42-67.45-44.15,22.45-44.75,35.43-94.6,35.44-144.98h-28ZM1338.04,1022.98h33c2.29,0,27.02-26.31,35.98-28.02,3.2-.61,3.32-.01,2.93,2.9-1.13,8.45-3.11,16.4-1.92,25.13h26.02c-.92-46.98,29.02-92.9,53.16-131.8,19.71-31.77,43.13-61.31,63.28-92.69,2.25-3.5,5.68-7.07,5.55-11.45h-28c-29.42,43.67-62.57,85.08-87,131.98l7.01-131.99h-26.02s-10.37,178.56-10.37,178.56c-1.46,4.84-18.83,12-24.23,15.76-17.68,12.3-33.69,26.93-49.38,41.6ZM600.04,1208.91v-66.98c0-51.03-48.42-83.62-94.92-87.05-48.32-3.56-127.83-3.55-176.15,0-59.27,4.36-91.41,43.2-95.02,100.95,6.42,107.22-8.25,223.83.13,329.95,4.3,54.39,36.01,84.42,91.06,83.08,87.6-22.02,274.91,8.5,274.91-127.03v-67.98c0-3.73-11.97-3.24-15.08-3.08-25.22,1.26-50.72,4.33-75.94,6.06-7.61.52-15.38-.31-22.98.02v66.98c0,5.6-9.25,14.54-15.47,14.52-33.79.95-70.17,9.64-103.48,10.58-13.1.37-17.95-4.07-19.14-17.01,5.92-90.61-7.56-190.57.03-280.07.6-7.05,1.56-16.05,8.22-19.77,10.94-6.1,57.28-2.81,72.93-3.07,9.66-.16,56.92-8.61,56.92,8.91v51.98l114-1ZM1143.04,1056.97h-271v461.84c14.91,1.91,30.74-1.73,44.92-2.08,78.56-1.93,164.94,5.86,242.06.06,38.37-2.89,74.81-20.77,86.46-59.52,6.83-22.73,7.66-101.58,1.58-124.4-8.27-31-35.68-46.26-65.03-52.97,31.87-11.62,53.29-30.29,56.09-65.91,6.23-79.11-1.31-149.07-95.07-157.02ZM1864.04,1056.97h-338v478.84l116,13v-183.94l202,15.99v-97.97l-204-12v-119.96l224,6v-99.97ZM784.04,1410.84l-116,6v111.96l116-6v-111.96ZM1438.04,1416.84l-116-4v109.96l116,8v-113.96ZM954.04,1678.75v-42.99c0-4.83-4.29-20.38-6.45-25.54-5.8-13.9-16.49-23.25-31.1-26.89-17.41-4.34-73.03-.64-93.2,1.7-33.68,3.91-49.57,23.89-53.21,56.77,3.01,61.53-4.11,126.94-.13,188,2.31,35.37,15.32,58,53.02,60.96,20.94,1.64,83.95,2.45,101.08-5.07s30-30.42,30-47.99v-54.98h-58v44.98c0,1.5-4.86,4.53-7.05,4.95-5.5,1.05-53.76.62-56.96-.94-1.67-.81-3.06-2.62-3.59-4.41l-.49-175.63c-1.45-4.98,7.62-10.9,11.09-10.9h54c.21,0,3,2.79,3,3v36.99l58-2ZM1050.04,1580.79h-58v307.89h58v-129.96l21.58.44c7.9,17.28,52.42,62.5,52.42,78.53v50.98h56v-74.97c0-2.45-5.8-11.56-7.55-14.45-6.59-10.89-49.38-62.89-50.12-67.89-1.21-8.1,57.67-57.65,57.67-75.61v-72.98l-54-2v56.98c0,4.91-6.91,13.8-10.06,17.93-4.57,6-34.83,40.86-38.83,43.16-7.27,4.18-18.76.9-27.11,1.89v-119.96ZM1386.04,1594.78l-166.01-10.01,1.01,303.91h167v-55.98l-112-2v-66.98c0-1.44,2.42-2.17,4.08-2.18,29.55-.08,59.48,2.15,89.02,3.27,2.05.44,6.89-1.44,6.89-3.1v-49.98c0-1.13-3.36-3.07-5-3l-93-4v-59.98l108,6v-55.98ZM726.04,1594.78l-58,4v289.9h58v-293.9ZM1426.04,1598.78v289.9h54v-163.94l38.21,80.76c5.15,6.6,32.23,2.02,41.47,2.88l38.32-75.65v155.95h54v-261.91l-55.88-7.96-53.64,113.35-4.45,2.57-54.32-129.66-57.71-6.29ZM506.04,1792.71c38.5-4.24,102.62,10.48,120.57-34.42,7.92-19.8,8.25-98.51,2.06-119.16-6.56-21.87-27.4-32.84-49.62-30.33l-131.01,17.96v261.91h58v-95.97ZM1352.02,2072.62l-9-47.96c-139.02-64.93-304.57-83.38-454.62-48.64-40.62,9.41-80.26,23.48-117.92,41.07-2.89,18.97-10.9,38.44-9.47,57.5l64.6-18.38c6.3-11.75-4.46-35.69,14.32-38.74,22.83-3.71,14.24,31.3,17.13,31.18l42.96-8.04c-.94-13.56-.3-41.47,20.1-35.1,15.78,4.93,5.64,26.87,7.91,29.12l40.02-3.99c-8.63-41.86,32.8-47.85,27.98-4l48.02-2c-6.66-38.99,33.05-36.62,27.98,0,6.05-1.19,42.46,1.55,44.02,0,1.28-1.27-4.51-29.25,14.85-27.98,19.3,1.26,10.64,27.58,14.31,30.2,1.75,1.25,41.32,5.3,42.85,3.78,1.22-1.21-4.62-27.23,14.84-25.98,18.97,1.22,11.12,29.68,13.25,31.87,1.38,1.43,34.09,4.34,38.94,8.06,2.66-10.59-3.27-21.22,9.92-26.14,24.18-9.01,16.87,27.9,23.01,33.2,7.42,6.4,52.71,13.02,64.01,20.96ZM712.03,2296.55c-2.88-87.38,3.57-174.26,19.98-259.92-14.06,10.06-61.68,32.79-68.41,46.55s-12.22,47.08-14.94,63.04c-7.69,45.08-10.09,90.49-8.54,136.24l71.91,14.09ZM1469.84,2284.35c1.62-49.64-1.18-99.36-10.44-148.12-1.71-9.01-9.13-45.68-13.46-50.52-1.8-2.01-11.89-8.31-15.28-10.71-4.84-3.42-50.46-32.5-52.61-30.35,18.63,83.18,21.68,168.74,20,253.89l71.79-14.18ZM1044.04,2052.63c-7.94,2.44-42.53.37-46.13,2.87-6.46,4.49,7.92,37.68-13.32,40.81-20.13,2.97-15.05-24.91-16.54-34.75-.47-3.09,1.22-3.06-3.03-3.02-11.44.13-25.32,4.49-37.11,4.94-4.96,3.33,4.36,37.92-15.31,40.82-19.99,2.95-14.98-24.65-15.58-35.71-7.96,4.24-35.76,4.86-41.02,8.98-7.62,5.96,3.31,35.29-15.43,38.73-17.34,3.19-17.94-19.93-16.54-31.68l-69.62,20.36c-9.7,64.59-12.27,130.33-9.44,195.72.59,1.93.5,2.88,2.59,3.81,8.1,3.62,46.02,7.88,57.83,9.69,135.37,20.74,273.13,24.45,409.42,10.08,49.95-5.26,99.7-13.44,149.38-20.62,5.56-3.89,4.32-72.72,3.95-84.18-.67-20.9-2.25-43.01-4.09-63.88-.56-6.35-5.22-49.58-7.23-51.21l-64.75-21.77c-1.24,10.98,4.52,25.61-7.31,31.71-21.64,11.17-22.42-26.25-22.95-39.47-1.22-1.83-40.67-10.17-42.84-9.78-8.83,1.57,6.96,27.71-10.21,37.26-22.4,12.46-22.3-28.99-20.93-41.51-13.74-2.56-27.77-4.75-41.79-4.22.71,12.05,2.77,42.54-16.54,39.69-20.85-3.07-9.38-43.68-16.45-43.68h-41v34.99c0,9.19-28,11.52-28-2v-32.99ZM608.03,2272.55c-2.49-52.51,3.67-104.32,11.99-155.95-24.54,22.96-49.04,46.62-69.92,73.03-22.74,28.76-42.56,48.66-19.68,85.54,10.89,17.56,32.29,41.84,46.6,57.38,4.51,4.9,33.28,34.73,36.06,35.94,4.53,1.97,2.24-2.49,2.1-4.09-2.06-23.27-5.8-46.64-8.08-69.92-10.04-4.38-75.2-32.87-77.13-38.98-.28-.87-.57-4.99,1.06-4.94l77.02,21.97ZM1496.05,2366.52c29.13-22.25,57.11-50.28,79.93-79.02,32.86-41.39,22.92-56.88-8-93.87-22.04-26.37-48.76-52.07-75.93-73.03,8.83,50.86,14.07,102.19,11.98,153.95l82.02-22.98c-2.31,5.48-10.94,9.16-15.98,12.02-20.54,11.65-43.68,20.85-65.72,29.28l-8.31,73.64ZM1384.05,2444.48c1.53,1.75,28.29-14.96,31.82-17.15,7.56-4.7,38.77-24.45,41.96-30.03,3.84-6.71,6.67-32.81,7.93-42.06.87-6.43,5.75-48.63,4.26-50.7l-71.9,20.07-14.07,119.87ZM730.01,2452.49l-16.85-126.08-71.11-19.86c-1.76,1.84,3.38,44.08,4.27,50.69,1.37,10.11,4.4,37.65,8.85,45.13,2.61,4.39,18.2,14.81,23.42,18.57,16.19,11.67,33.8,22.18,51.42,31.55ZM1364.03,2334.52c-178.91,36.15-358.15,40.89-538.67,13.67-24.9-3.75-49.63-8.94-74.35-13.68-4.96-1.08-3.22,11.7-3.06,15.1,1.29,26.99,7.45,62.43,12.71,89.25,1.56,7.96,4.35,30.6,9.38,34.6,156.15,73.16,347.01,75.24,509.03,19.04,10.44-3.62,63.03-23.25,66.6-29.39,4.03-6.93,8.42-39.74,10.03-49.95,4.11-25.99,7.16-52.36,8.33-78.65Z"/>
      <path class="cls-7" d="M1646.54,654.6c-3.01-19.59-10.08-41.22-12.43-60.59-.38-3.16-.4-3.25,2.88-2.85l301.12,130.84c19.76,11.2,34.57,30.44,39.02,52.96l.98,1122.8c-47.16,340.35-336.49,522.05-600.25,691.51-85.4,54.87-216.79,145.44-309.31,178.63-33.25,11.93-47.19,2.05-77.24-11.8-137.08-63.18-290.58-169.92-416.73-255.19-219.19-148.16-436.69-320.55-466.64-605.15V783.97c1.34-26.16,17.75-49.35,40-61.98l290.06-130.87c-2.85,11.26-8.16,60.6-15.16,65.79l-246.93,111.04c-6.08,3.39-12.63,9.01-13.78,16.22l-.19,1099.59c25.99,315.16,306.56,485.55,545.04,640.75,86.55,56.32,178.36,116.42,269.7,164.25,10.48,5.49,60.35,31.77,68.04,31.11s56.48-26.68,67.35-32.41c85.82-45.21,172.25-101.33,253.79-154.16,247.85-160.57,525.53-333.22,560.25-657.52-6.14-346.74,8.84-695.35-2.17-1041.64-.38-11.92,2.47-48.65-1.81-56.17-1.37-2.41-7.97-7.68-10.7-9.3l-264.9-114.06Z"/>
      <path class="cls-5" d="M1044.04,2052.63v32.99c0,13.52,28,11.19,28,2v-34.99h41c7.07,0-4.4,40.61,16.45,43.68,19.32,2.85,17.26-27.65,16.54-39.69,14.02-.52,28.05,1.66,41.79,4.22-1.37,12.52-1.48,53.97,20.93,41.51,17.17-9.55,1.37-35.69,10.21-37.26,2.16-.38,41.62,7.95,42.84,9.78.53,13.21,1.31,50.64,22.95,39.47,11.83-6.11,6.07-20.73,7.31-31.71l64.75,21.77c2.01,1.62,6.67,44.85,7.23,51.21,1.85,20.88,3.43,42.98,4.09,63.88.37,11.46,1.6,80.29-3.95,84.18-49.68,7.17-99.43,15.35-149.38,20.62-136.29,14.36-274.05,10.66-409.42-10.08-11.81-1.81-49.73-6.07-57.83-9.69-2.09-.93-2-1.88-2.59-3.81-2.82-65.39-.25-131.14,9.44-195.72l69.62-20.36c-1.39,11.76-.79,34.87,16.54,31.68,18.74-3.44,7.81-32.77,15.43-38.73,5.26-4.12,33.07-4.73,41.02-8.98.59,11.06-4.42,38.66,15.58,35.71,19.67-2.9,10.36-37.49,15.31-40.82,11.8-.45,25.68-4.81,37.11-4.94,4.25-.05,2.57-.07,3.03,3.02,1.49,9.84-3.59,37.71,16.54,34.75,21.24-3.13,6.86-36.32,13.32-40.81,3.6-2.5,38.19-.44,46.13-2.87Z"/>
      <path class="cls-3" d="M1143.04,1056.97c93.76,7.95,101.3,77.91,95.07,157.02-2.81,35.62-24.23,54.29-56.09,65.91,29.35,6.71,56.76,21.97,65.03,52.97,6.09,22.82,5.26,101.66-1.58,124.4-11.65,38.75-48.09,56.64-86.46,59.52-77.11,5.8-163.5-1.98-242.06-.06-14.18.35-30.01,3.99-44.92,2.08v-461.84h271ZM988.04,1236.9h127c2.39,0,8.35-9.72,8.89-13.11,1.97-12.37,1.42-48.72.19-61.94-.55-5.93-3.67-18.92-11.08-18.92h-125v93.97ZM1123.04,1322.87h-135v107.96h137c6.61,0,10.11-11.77,10.77-17.23,2.01-16.58,1.68-50.81.3-67.82-.74-9.13-2.4-21.05-13.07-22.92Z"/>
      <path class="cls-6" d="M1079.84,347.41c22.01,66.77-24.39,130.72-66.78,177.76-53.06,58.89-118.53,108.7-181.54,156.4-96.51,3.58-193.79.39-290.59,1.62l-5.94-2.06c-10.31-39.16-14.62-79.64-14.05-120.12,1.98-6.4,18.32-16.93,24.47-21.51,18.46-13.76,39.21-27.01,58.8-39.19,141.65-88.1,307.22-148.34,475.64-152.91Z"/>
      <path class="cls-3" d="M600.04,1208.91l-114,1v-51.98c0-17.53-47.26-9.07-56.92-8.91-15.65.26-61.99-3.03-72.93,3.07-6.67,3.72-7.63,12.72-8.22,19.77-7.58,89.5,5.89,189.46-.03,280.07,1.2,12.95,6.04,17.39,19.14,17.01,33.31-.94,69.69-9.63,103.48-10.58,6.22.01,15.47-8.93,15.47-14.52v-66.98c7.6-.33,15.37.5,22.98-.02,25.21-1.73,50.71-4.8,75.94-6.06,3.11-.16,15.08-.65,15.08,3.08v67.98c0,135.53-187.31,105.01-274.91,127.03-55.05,1.34-86.76-28.69-91.06-83.08-8.38-106.12,6.29-222.73-.13-329.95,3.61-57.75,35.75-96.59,95.02-100.95,48.33-3.55,127.83-3.56,176.15,0,46.5,3.42,94.92,36.02,94.92,87.05v66.98Z"/>
      <polygon class="cls-3" points="1864.04 1056.97 1864.04 1156.93 1640.04 1150.93 1640.04 1270.89 1844.04 1282.89 1844.04 1380.85 1642.04 1364.86 1642.04 1548.8 1526.04 1535.8 1526.04 1056.97 1864.04 1056.97"/>
      <path class="cls-5" d="M1364.03,2334.52c-1.17,26.29-4.22,52.66-8.33,78.65-1.61,10.21-6,43.02-10.03,49.95-3.57,6.14-56.16,25.77-66.6,29.39-162.01,56.2-352.88,54.12-509.03-19.04-5.03-4-7.82-26.64-9.38-34.6-5.27-26.82-11.43-62.27-12.71-89.25-.16-3.4-1.9-16.18,3.06-15.1,24.72,4.74,49.45,9.92,74.35,13.68,180.52,27.22,359.75,22.48,538.67-13.67Z"/>
      <path class="cls-6" d="M1060.03,313.21c-192.96,8.92-377.88,85.94-533.97,195.94,13.94-115.36,79.43-221.89,169.38-293.5,104.92-1.96,274.89-4.87,352.64,78.52,2.48,2.66,14.56,16.49,11.94,19.03Z"/>
      <path class="cls-7" d="M1635.36,756.39c-2.13,2.23-6.57,3.86-9.25,5.75l-1160.14-.02c-21.65-7.55-21.65-38.55,0-46.1l1153.16-1.04c20.99.08,30.07,26.92,16.22,41.41Z"/>
      <path class="cls-6" d="M892.04,683.09c62.91-52.19,129.6-104.06,178.83-170.11,34.29-46.01,66.97-107.15,47.17-165.75,29.67-.57,59.46,1.23,88.79,5.77,26.32,108.29,15.36,221.45-2.79,330.1h-312Z"/>
      <path class="cls-3" d="M1426.04,1598.78l57.71,6.29,54.32,129.66,4.45-2.57,53.64-113.35,55.88,7.96v261.91h-54v-155.95l-38.32,75.65c-9.24-.86-36.32,3.72-41.47-2.88l-38.21-80.76v163.94h-54v-289.9Z"/>
      <path class="cls-3" d="M848.04,787.06h28c-.01,50.38-12.99,100.23-35.44,144.98.6,7.73,58.08,38.14,67.45,44.15,4.82,2.08,9.19-2.32,12.94-5.25,23.56-18.45,75.19-65.8,89.44-90.52,14.78-25.65,17.72-64.32,17.61-93.36h26.02c4.3,4.29-6.53,51.98-6.14,60.96.23,5.23,3.56,9.81,5.8,14.36,24.11,48.91,67.93,79.33,107.3,114.65l74.73-48.96c-20.27-44.24-28.85-92.78-33.7-141h28c.73,14.17,22.98,120.24,29.02,121.97,3.98,1.14,2.82-1.98,3.95-3.96,19.66-34.32,28.41-78.92,42-116.04,3.6-4.32,20.8-.92,27.02-1.96-14.7,51.34-29.54,105.35-61.41,148.91,14.32,33.94,36.02,64.68,65.41,86.98-7.68-.9-17.69,1.36-24.96-.02-3.61-.69-8.63-5.64-11.96-8.04-22.14-15.95-37.48-39.07-52.04-61.68l-69.03,39.81c-2.86,4.16,25.1,23.57,23.99,31.95h-29c-1.53,0-13.3-15.27-16.28-15.78-4.31-.74-17.65,14.58-23.76,15.74-10.29,1.96-26.43-.43-36.94-1.98l39.47-27.45c2.29-.16,3.41-1.13,2.48-3.46-3.29-8.19-37.3-32.13-45.98-40.02-20.94-19.04-41.17-42.57-52-69-7.4,9.17-12.69,19.57-20.04,28.93-13.32,16.97-31.77,33.62-47.91,48.07-4.76,4.26-35.52,27.7-36.02,29.99-.62,2.83,1.61,3.4,3.3,4.66l46.69,28.3h-43c-3.73,0-22.68-14.8-29.93-14.06-4.83.5-18.79,16.06-20.07,16.06h-29c-.35-8.21,26.98-24.81,26-28.97-20.72-14.15-44.63-23.47-63.01-41-3.37,9.93-51.55,67.97-55.99,67.97h-29c11.62-13.64,65.55-74.19,64.06-88.9-.24-2.37-22.6-32.97-26.41-39.71-18.67-33.12-32.39-70.43-41.65-107.29,5.7.94,21.95-2.24,25.04,1.94,1.9,2.56,8.45,28.67,10.91,35.07,11.54,30,25.63,59.16,45.04,84.9,19.84-36.36,29.3-80.62,29-121.92Z"/>
      <path class="cls-3" d="M1050.04,1580.79v119.96c8.35-.99,19.84,2.29,27.11-1.89,3.99-2.29,34.26-37.16,38.83-43.16,3.15-4.13,10.06-13.02,10.06-17.93v-56.98l54,2v72.98c0,17.96-58.88,67.51-57.67,75.61.75,4.99,43.54,57,50.12,67.89,1.75,2.89,7.55,12,7.55,14.45v74.97h-56v-50.98c0-16.03-44.52-61.25-52.42-78.53l-21.58-.44v129.96h-58v-307.89h58Z"/>
      <path class="cls-6" d="M1196.03,315.21c-30.57-1.9-60.99-4.84-91.68-4.31-36.48-71.32-119.08-104.33-193.9-119.05-53.49-10.52-108.01-12.56-162.4-13.57,78.59-50.33,171.42-75.82,264.56-80.59,88.46,42.4,155.4,123.78,183.43,217.52Z"/>
      <path class="cls-6" d="M1448.04,683.09h-206c2.82-19.1,7.15-38.12,9.71-57.27,9.48-70.74,12.56-148.44,4-219.35-.54-4.47-9.09-47.06-6.7-47.29l62,13.99c21.68,114.19,95.17,204.31,136.97,309.92Z"/>
      <path class="cls-3" d="M1386.04,1594.78v55.98l-108-6v59.98l93,4c1.64-.07,5,1.87,5,3v49.98c0,1.65-4.84,3.54-6.89,3.1-29.54-1.13-59.47-3.36-89.02-3.27-1.67,0-4.08.73-4.08,2.18v66.98l112,2v55.98h-167l-1.01-303.91,166.01,10.01Z"/>
      <path class="cls-3" d="M954.04,1678.75l-58,2v-36.99c0-.21-2.79-3-3-3h-54c-3.47,0-12.54,5.93-11.09,10.9l.49,175.63c.53,1.79,1.91,3.6,3.59,4.41,3.19,1.55,51.46,1.99,56.96.94,2.19-.42,7.05-3.45,7.05-4.95v-44.98h58v54.98c0,17.57-13.56,40.77-30,47.99s-80.14,6.71-101.08,5.07c-37.7-2.95-50.72-25.58-53.02-60.96-3.98-61.06,3.14-126.47.13-188,3.64-32.88,19.53-52.86,53.21-56.77,20.17-2.34,75.79-6.03,93.2-1.7,14.61,3.64,25.3,12.99,31.1,26.89,2.15,5.16,6.45,20.71,6.45,25.54v42.99Z"/>
      <path class="cls-3" d="M506.04,1792.71v95.97h-58v-261.91l131.01-17.96c22.21-2.51,43.06,8.46,49.62,30.33,6.19,20.65,5.86,99.36-2.06,119.16-17.95,44.9-82.07,30.18-120.57,34.42ZM574.04,1731.74v-63.98c0-4.26-17.09-3.13-20.98-2.98-5.18.2-48.82,4.67-49.15,7.14l2.15,70.81c10.88-5.13,64.7.37,67.98-11Z"/>
      <path class="cls-6" d="M1537.49,467.71c3.01,14.81,6.32,29.7,8.26,44.73,6.33,49,5.36,104.61-6.69,152.69-1.08,4.3-2.64,16.47-6.28,17.71-2.55.87-40.92.86-43.47,0-8.66-15-13.66-32.89-20.91-49.07-37.22-82.95-95.24-157.17-114.34-248.55,64.13,20.32,125.39,48.91,183.44,82.51Z"/>
      <path class="cls-5" d="M1352.02,2072.62c-11.3-7.94-56.6-14.56-64.01-20.96-6.14-5.3,1.17-42.22-23.01-33.2-13.19,4.92-7.26,15.55-9.92,26.14-4.84-3.71-37.55-6.63-38.94-8.06-2.12-2.19,5.73-30.66-13.25-31.87-19.47-1.25-13.62,24.77-14.84,25.98-1.53,1.52-41.09-2.54-42.85-3.78-3.67-2.61,4.99-28.94-14.31-30.2-19.36-1.27-13.57,26.71-14.85,27.98-1.56,1.55-37.97-1.19-44.02,0,5.07-36.62-34.64-38.99-27.98,0l-48.02,2c4.82-43.85-36.61-37.86-27.98,4l-40.02,3.99c-2.27-2.25,7.87-24.19-7.91-29.12-20.4-6.37-21.04,21.54-20.1,35.1l-42.96,8.04c-2.89.12,5.7-34.88-17.13-31.18-18.79,3.05-8.02,26.99-14.32,38.74l-64.6,18.38c-1.43-19.06,6.58-38.54,9.47-57.5,37.66-17.59,77.3-31.67,117.92-41.07,150.05-34.75,315.6-16.29,454.62,48.64l9,47.96Z"/>
      <path class="cls-6" d="M1304.03,333.22l-65.51-12.48c-22.44-74.13-61.11-142.08-118.46-194.49-7.85-7.18-19.44-14.31-26.68-21.31-1.85-1.79-4.32-1.8-3.33-5.65,83.86,10.35,166.27,35.5,237.1,81.99,1.68,2.71-12.1,33.17-14.11,39.98-10.74,36.44-11.72,74.33-9.01,111.96Z"/>
      <polygon class="cls-3" points="726.04 1594.78 726.04 1888.68 668.04 1888.68 668.04 1598.78 726.04 1594.78"/>
      <path class="cls-6" d="M1522.03,417.16c-29.39-13.51-58.07-28.62-88.06-40.9-28.93-11.84-58.79-21.14-88.12-31.87-7.15-45.87-7.66-97.62,15.23-139.15,72.79,52.87,128.91,127.97,160.96,211.92Z"/>
      <path class="cls-3" d="M712.03,2296.55l-71.91-14.09c-1.55-45.75.84-91.15,8.54-136.24,2.72-15.95,8.33-49.51,14.94-63.04s54.35-36.5,68.41-46.55c-16.41,85.66-22.86,172.54-19.98,259.92Z"/>
      <path class="cls-3" d="M1469.84,2284.35l-71.79,14.18c1.67-85.15-1.37-170.72-20-253.89,2.16-2.14,47.77,26.93,52.61,30.35,3.39,2.4,13.49,8.71,15.28,10.71,4.33,4.84,11.75,41.51,13.46,50.52,9.26,48.77,12.05,98.48,10.44,148.12Z"/>
      <polygon class="cls-3" points="1438.04 1416.84 1438.04 1530.8 1322.04 1522.81 1322.04 1412.84 1438.04 1416.84"/>
      <polygon class="cls-3" points="784.04 1410.84 784.04 1522.81 668.04 1528.8 668.04 1416.84 784.04 1410.84"/>
      <path class="cls-3" d="M1338.04,1022.98c15.69-14.67,31.7-29.31,49.38-41.6,5.41-3.76,22.78-10.93,24.23-15.76l10.37-178.56h26.02s-7.01,131.99-7.01,131.99c24.43-46.89,57.58-88.3,87-131.98h28c.13,4.38-3.3,7.95-5.55,11.45-20.16,31.37-43.57,60.91-63.28,92.69-24.14,38.9-54.08,84.82-53.16,131.8h-26.02c-1.19-8.73.79-16.68,1.92-25.13.39-2.92.27-3.51-2.93-2.9-8.96,1.71-33.69,28.02-35.98,28.02h-33Z"/>
      <path class="cls-5" d="M1496.05,2366.52l8.31-73.64c22.04-8.44,45.18-17.63,65.72-29.28,5.04-2.86,13.67-6.54,15.98-12.02l-82.02,22.98c2.09-51.76-3.15-103.09-11.98-153.95,27.16,20.96,53.88,46.66,75.93,73.03,30.92,36.99,40.87,52.47,8,93.87-22.82,28.74-50.8,56.77-79.93,79.02Z"/>
      <path class="cls-3" d="M535.04,787.06c1.77.5,23.11,22.59,26.02,25.97,23.07,26.81,38.62,59.59,51.98,92.01l9.28-114.7c2.04-6.2,20.06-2.2,25.73-3.29l-15.68,146.79c35.11,22.19,72.24,50.44,85.67,91.13-6.96-1.11-22.03,2.49-27.02-1.96-1.89-1.69-8.03-16.02-11.31-20.68-8.17-11.62-33.09-36.12-46.64-39.36-5.19-1.24-1.86,1.7-1.54,3.52,3.36,18.82,8.77,37.35,10.52,56.48l-23.9-.1c-12.93-87.13-44.97-176.29-112.1-235.81,7.84,1.4,22.24-1.92,29,0Z"/>
      <path class="cls-5" d="M608.03,2272.55l-77.02-21.97c-1.62-.05-1.33,4.07-1.06,4.94,1.92,6.1,67.08,34.59,77.13,38.98,2.28,23.28,6.02,46.65,8.08,69.92.14,1.6,2.43,6.06-2.1,4.09-2.78-1.21-31.55-31.05-36.06-35.94-14.3-15.54-35.7-39.83-46.6-57.38-22.88-36.88-3.06-56.78,19.68-85.54,20.88-26.41,45.39-50.07,69.92-73.03-8.32,51.63-14.48,103.44-11.99,155.95Z"/>
      <path class="cls-3" d="M730.01,2452.49c-17.62-9.37-35.23-19.88-51.42-31.55-5.22-3.76-20.81-14.18-23.42-18.57-4.45-7.48-7.48-35.02-8.85-45.13-.9-6.61-6.03-48.85-4.27-50.69l71.11,19.86,16.85,126.08Z"/>
      <path class="cls-3" d="M1384.05,2444.48l14.07-119.87,71.9-20.07c1.48,2.07-3.39,44.27-4.26,50.7-1.26,9.25-4.08,35.35-7.93,42.06-3.19,5.58-34.4,25.33-41.96,30.03-3.53,2.2-30.29,18.9-31.82,17.15Z"/>
      <path class="cls-2" d="M1123.04,1322.87c10.68,1.87,12.33,13.79,13.07,22.92,1.38,17.01,1.71,51.23-.3,67.82-.66,5.46-4.16,17.23-10.77,17.23h-137v-107.96h135Z"/>
      <path class="cls-2" d="M988.04,1236.9v-93.97h125c7.4,0,10.53,12.99,11.08,18.92,1.23,13.22,1.77,49.57-.19,61.94-.54,3.39-6.49,13.11-8.89,13.11h-127Z"/>
      <path class="cls-2" d="M574.04,1731.74c-3.28,11.36-57.1,5.86-67.98,11l-2.15-70.81c.34-2.47,43.97-6.93,49.15-7.14,3.9-.15,20.98-1.28,20.98,2.98v63.98Z"/>
    </g>
  </g>
</svg>